<?xml version="1.0" encoding="UTF-8" standalone="no"?>
<!-- Created with Inkscape (http://www.inkscape.org/) -->

<svg
   version="1.1"
   id="svg1"
   width="576"
   height="192"
   viewBox="0 0 576 192"
   sodipodi:docname="Shepherds Inn Logo.pdf"
   xmlns:inkscape="http://www.inkscape.org/namespaces/inkscape"
   xmlns:sodipodi="http://sodipodi.sourceforge.net/DTD/sodipodi-0.dtd"
   xmlns="http://www.w3.org/2000/svg"
   xmlns:svg="http://www.w3.org/2000/svg">
  <defs
     id="defs1">
    <clipPath
       clipPathUnits="userSpaceOnUse"
       id="clipPath3">
      <path
         d="M 0,144 H 432 V 0 H 0 Z"
         transform="translate(-32.086401,-66.019404)"
         id="path3" />
    </clipPath>
    <clipPath
       clipPathUnits="userSpaceOnUse"
       id="clipPath5">
      <path
         d="M 0,144 H 432 V 0 H 0 Z"
         transform="translate(-78.844202,-82.436402)"
         id="path5" />
    </clipPath>
    <clipPath
       clipPathUnits="userSpaceOnUse"
       id="clipPath7">
      <path
         d="M 0,144 H 432 V 0 H 0 Z"
         transform="translate(-97.941902,-83.434002)"
         id="path7" />
    </clipPath>
    <clipPath
       clipPathUnits="userSpaceOnUse"
       id="clipPath9">
      <path
         d="M 0,144 H 432 V 0 H 0 Z"
         transform="translate(-167.8765,-82.436402)"
         id="path9" />
    </clipPath>
    <clipPath
       clipPathUnits="userSpaceOnUse"
       id="clipPath11">
      <path
         d="M 0,144 H 432 V 0 H 0 Z"
         transform="translate(-186.9741,-83.434002)"
         id="path11" />
    </clipPath>
    <clipPath
       clipPathUnits="userSpaceOnUse"
       id="clipPath13">
      <path
         d="M 0,144 H 432 V 0 H 0 Z"
         transform="translate(-214.1401,-80.214302)"
         id="path13" />
    </clipPath>
    <clipPath
       clipPathUnits="userSpaceOnUse"
       id="clipPath15">
      <path
         d="M 0,144 H 432 V 0 H 0 Z"
         transform="translate(-243.75831,-79.579002)"
         id="path15" />
    </clipPath>
    <clipPath
       clipPathUnits="userSpaceOnUse"
       id="clipPath17">
      <path
         d="M 0,144 H 432 V 0 H 0 Z"
         transform="translate(-274.1929,-65.929599)"
         id="path17" />
    </clipPath>
    <clipPath
       clipPathUnits="userSpaceOnUse"
       id="clipPath19">
      <path
         d="M 0,144 H 432 V 0 H 0 Z"
         transform="translate(-315.46531,-86.562902)"
         id="path19" />
    </clipPath>
    <clipPath
       clipPathUnits="userSpaceOnUse"
       id="clipPath21">
      <path
         d="M 0,144 H 432 V 0 H 0 Z"
         transform="translate(-333.15381,-93.274802)"
         id="path21" />
    </clipPath>
    <clipPath
       clipPathUnits="userSpaceOnUse"
       id="clipPath23">
      <path
         d="M 0,144 H 432 V 0 H 0 Z"
         transform="translate(-371.38821,-93.274802)"
         id="path23" />
    </clipPath>
    <clipPath
       clipPathUnits="userSpaceOnUse"
       id="clipPath25">
      <path
         d="M 0,144 H 432 V 0 H 0 Z"
         transform="translate(-144.90771,-50.334504)"
         id="path25" />
    </clipPath>
    <clipPath
       clipPathUnits="userSpaceOnUse"
       id="clipPath27">
      <path
         d="M 0,144 H 432 V 0 H 0 Z"
         transform="translate(-164.9043,-55.796401)"
         id="path27" />
    </clipPath>
    <clipPath
       clipPathUnits="userSpaceOnUse"
       id="clipPath29">
      <path
         d="M 0,144 H 432 V 0 H 0 Z"
         transform="translate(-183.9136,-55.796401)"
         id="path29" />
    </clipPath>
    <clipPath
       clipPathUnits="userSpaceOnUse"
       id="clipPath31">
      <path
         d="M 0,144 H 432 V 0 H 0 Z"
         id="path31" />
    </clipPath>
    <clipPath
       clipPathUnits="userSpaceOnUse"
       id="clipPath33">
      <path
         d="M 0,144 H 432 V 0 H 0 Z"
         transform="translate(-217.65921,-55.796401)"
         id="path33" />
    </clipPath>
    <clipPath
       clipPathUnits="userSpaceOnUse"
       id="clipPath35">
      <path
         d="M 0,144 H 432 V 0 H 0 Z"
         transform="translate(-238.68951,-57.262201)"
         id="path35" />
    </clipPath>
    <clipPath
       clipPathUnits="userSpaceOnUse"
       id="clipPath37">
      <path
         d="M 0,144 H 432 V 0 H 0 Z"
         transform="translate(-258.3613,-57.262201)"
         id="path37" />
    </clipPath>
    <clipPath
       clipPathUnits="userSpaceOnUse"
       id="clipPath39">
      <path
         d="M 0,144 H 432 V 0 H 0 Z"
         transform="translate(-274.5166,-47.557104)"
         id="path39" />
    </clipPath>
    <clipPath
       clipPathUnits="userSpaceOnUse"
       id="clipPath41">
      <path
         d="M 0,144 H 432 V 0 H 0 Z"
         transform="translate(-297.07521,-57.262201)"
         id="path41" />
    </clipPath>
    <clipPath
       clipPathUnits="userSpaceOnUse"
       id="clipPath43">
      <path
         d="M 0,144 H 432 V 0 H 0 Z"
         id="path43" />
    </clipPath>
    <clipPath
       clipPathUnits="userSpaceOnUse"
       id="clipPath45">
      <path
         d="M 0,144 H 432 V 0 H 0 Z"
         transform="translate(-338.81151,-57.262201)"
         id="path45" />
    </clipPath>
    <clipPath
       clipPathUnits="userSpaceOnUse"
       id="clipPath47">
      <path
         d="M 0,144 H 432 V 0 H 0 Z"
         id="path47" />
    </clipPath>
    <clipPath
       clipPathUnits="userSpaceOnUse"
       id="clipPath49">
      <path
         d="M 0,144 H 432 V 0 H 0 Z"
         transform="translate(-375.51861,-57.262201)"
         id="path49" />
    </clipPath>
    <clipPath
       clipPathUnits="userSpaceOnUse"
       id="clipPath51">
      <path
         d="M 0,144 H 432 V 0 H 0 Z"
         transform="translate(-395.91021,-46.322799)"
         id="path51" />
    </clipPath>
    <clipPath
       clipPathUnits="userSpaceOnUse"
       id="clipPath53">
      <path
         d="M 0,144 H 432 V 0 H 0 Z"
         transform="translate(-139.2991,-85.830602)"
         id="path53" />
    </clipPath>
  </defs>
  <sodipodi:namedview
     id="namedview1"
     pagecolor="#ffffff"
     bordercolor="#000000"
     borderopacity="0.25"
     inkscape:showpageshadow="2"
     inkscape:pageopacity="0.0"
     inkscape:pagecheckerboard="0"
     inkscape:deskcolor="#d1d1d1">
    <inkscape:page
       x="0"
       y="0"
       inkscape:label="1"
       id="page1"
       width="576"
       height="192"
       margin="58.201332 41.875999 58.201332 41.875599"
       bleed="0" />
  </sodipodi:namedview>
  <g
     id="g1"
     inkscape:groupmode="layer"
     inkscape:label="1">
    <g
       id="group-MC0">
      <path
         id="path2"
         d="m 0,0 c -0.635,0.317 -0.68,0.499 -0.68,1.724 0,2.267 0.181,4.081 0.227,4.806 0.045,0.499 0.136,0.726 0.362,0.726 0.273,0 0.318,-0.136 0.318,-0.498 0,-0.408 0,-1.043 0.136,-1.679 0.68,-3.355 3.673,-4.625 6.711,-4.625 4.354,0 6.486,3.129 6.486,6.031 0,3.129 -1.316,4.943 -5.215,8.163 l -2.041,1.678 c -4.807,3.945 -5.896,6.757 -5.896,9.841 0,4.852 3.628,8.163 9.388,8.163 1.768,0 3.083,-0.182 4.217,-0.454 0.862,-0.181 1.224,-0.227 1.588,-0.227 0.362,0 0.453,-0.09 0.453,-0.317 0,-0.227 -0.182,-1.723 -0.182,-4.807 0,-0.726 -0.091,-1.043 -0.317,-1.043 -0.272,0 -0.318,0.226 -0.363,0.589 -0.046,0.545 -0.317,1.769 -0.589,2.268 -0.273,0.499 -1.497,2.403 -5.669,2.403 -3.129,0 -5.579,-1.95 -5.579,-5.26 0,-2.585 1.18,-4.217 5.534,-7.619 l 1.269,-0.997 C 15.51,14.648 16.779,11.836 16.779,8.209 16.779,6.35 16.054,2.902 12.925,0.681 10.975,-0.68 8.525,-1.224 6.077,-1.224 3.945,-1.224 1.859,-0.906 0,0"
         style="fill:#174175;fill-opacity:1;fill-rule:nonzero;stroke:none"
         transform="matrix(1.3333333,0,0,-1.3333333,42.781867,103.97413)"
         clip-path="url(#clipPath3)" />
      <path
         id="path4"
         d="m 0,0 c 0.137,0 0.272,0 0.272,0.227 v 0.816 c 0,5.986 0,7.029 -0.09,8.253 -0.091,1.225 -0.272,1.86 -1.769,2.132 -0.317,0.045 -0.77,0.091 -1.134,0.091 -0.317,0 -0.544,0.135 -0.544,0.317 0,0.272 0.227,0.317 0.635,0.317 1.904,0 4.58,-0.136 4.762,-0.136 0.181,0 2.721,0.136 4.081,0.136 0.454,0 0.725,-0.045 0.725,-0.317 0,-0.136 -0.135,-0.317 -0.498,-0.317 -0.272,0 -0.635,-0.046 -0.907,-0.091 C 4.309,11.246 4.127,10.521 4.036,9.251 3.991,8.026 3.991,6.983 3.991,0.998 v -6.803 c 0,-3.718 0,-6.667 0.182,-8.299 0.136,-1.088 0.362,-1.996 1.542,-2.131 0.589,-0.091 1.179,-0.136 1.587,-0.136 0.362,0 0.59,-0.136 0.59,-0.317 0,-0.227 -0.228,-0.318 -0.681,-0.318 -2.268,0 -4.898,0.136 -5.124,0.136 -0.182,0 -2.813,-0.136 -4.036,-0.136 -0.454,0 -0.681,0.091 -0.681,0.362 0,0.137 0.136,0.273 0.499,0.273 0.362,0 0.68,0 1.043,0.091 0.771,0.135 0.998,1.134 1.134,2.176 0.226,1.632 0.226,4.49 0.226,8.163 v 4.036 c 0,0.181 -0.135,0.272 -0.272,0.272 h -16.461 c -0.137,0 -0.227,-0.045 -0.227,-0.272 v -4.036 c 0,-3.673 0,-6.621 0.227,-8.253 0.136,-0.998 0.362,-1.906 1.541,-2.041 0.59,-0.091 1.271,-0.136 1.633,-0.136 0.317,0 0.544,-0.136 0.544,-0.317 0,-0.182 -0.181,-0.318 -0.589,-0.318 -2.314,0 -4.988,0.136 -5.216,0.136 -0.136,0 -2.902,-0.136 -4.081,-0.136 -0.453,0 -0.725,0.091 -0.725,0.318 0,0.135 0.09,0.317 0.499,0.317 0.362,0 0.725,0.045 1.087,0.136 0.817,0.181 0.998,1.043 1.134,2.041 0.273,1.632 0.228,4.671 0.228,8.389 v 6.712 c 0,5.986 0,7.165 -0.091,8.389 -0.091,1.18 -0.408,2.041 -1.724,2.177 -0.408,0.046 -0.861,0.091 -1.224,0.091 -0.318,0 -0.499,0.136 -0.499,0.272 0,0.272 0.227,0.317 0.68,0.317 1.951,0 4.127,-0.136 4.716,-0.136 0.182,0 2.813,0.136 4.082,0.136 0.453,0 0.68,-0.09 0.68,-0.317 0,-0.182 -0.181,-0.272 -0.453,-0.272 -0.273,0 -0.408,0 -0.907,-0.091 -1.134,-0.181 -1.406,-0.952 -1.497,-2.222 -0.045,-1.225 -0.045,-2.222 -0.045,-8.208 V 0.227 C -16.688,0 -16.552,0 -16.416,0 Z"
         style="fill:#174175;fill-opacity:1;fill-rule:nonzero;stroke:none"
         transform="matrix(1.3333333,0,0,-1.3333333,105.1256,82.0848)"
         clip-path="url(#clipPath5)" />
      <path
         id="path6"
         d="m 0,0 c 0,5.94 0,7.029 -0.091,8.253 -0.091,1.27 -0.408,1.905 -1.722,2.177 -0.273,0.046 -0.726,0.091 -1.089,0.091 -0.318,0 -0.59,0.136 -0.59,0.272 0,0.272 0.227,0.363 0.68,0.363 0.908,0 2.131,-0.091 4.671,-0.136 0.227,0 8.299,0 9.206,0.045 0.908,0.045 1.406,0.091 1.769,0.227 0.271,0.09 0.317,0.136 0.499,0.136 0.091,0 0.181,-0.091 0.181,-0.318 0,-0.272 -0.272,-0.906 -0.363,-2.04 -0.046,-0.771 -0.09,-1.497 -0.135,-2.359 0,-0.408 -0.091,-0.68 -0.318,-0.68 -0.227,0 -0.318,0.182 -0.318,0.499 C 12.335,7.21 12.199,7.664 12.063,7.981 11.791,8.888 11.383,9.206 9.115,9.342 8.525,9.387 4.036,9.433 3.945,9.433 3.81,9.433 3.719,9.342 3.719,9.07 V -1.225 c 0,-0.272 0.045,-0.453 0.272,-0.453 0.544,0 5.169,0.045 6.122,0.136 1.043,0.045 1.723,0.181 2.086,0.68 0.181,0.272 0.318,0.363 0.499,0.363 0.09,0 0.181,-0.045 0.181,-0.272 0,-0.227 -0.181,-1.088 -0.317,-2.403 -0.136,-1.27 -0.136,-2.177 -0.182,-2.767 -0.045,-0.363 -0.136,-0.499 -0.317,-0.499 -0.227,0 -0.272,0.273 -0.272,0.59 0,0.272 -0.046,0.725 -0.137,1.088 -0.18,0.59 -0.453,1.224 -2.176,1.361 -1.043,0.09 -4.716,0.181 -5.442,0.181 -0.272,0 -0.317,-0.136 -0.317,-0.318 v -3.31 c 0,-1.405 -0.046,-5.397 0,-6.167 0.091,-1.678 0.317,-2.54 1.269,-2.948 0.681,-0.318 1.769,-0.409 3.311,-0.409 0.861,0 2.312,-0.045 3.446,0.273 1.36,0.408 1.679,1.315 2.041,2.993 0.091,0.453 0.227,0.635 0.408,0.635 0.273,0 0.273,-0.408 0.273,-0.68 0,-0.318 -0.363,-3.175 -0.499,-3.946 -0.182,-0.906 -0.499,-0.997 -1.995,-0.997 -2.994,0 -4.264,0.091 -5.851,0.091 -1.587,0.045 -3.673,0.135 -5.351,0.135 -1.043,0 -1.905,-0.135 -2.993,-0.135 -0.408,0 -0.635,0.09 -0.635,0.317 0,0.182 0.181,0.317 0.408,0.317 0.272,0 0.59,0.045 0.907,0.136 0.816,0.182 1.36,0.772 1.451,3.583 0.046,1.542 0.091,3.401 0.091,6.848 z"
         style="fill:#174175;fill-opacity:1;fill-rule:nonzero;stroke:none"
         transform="matrix(1.3333333,0,0,-1.3333333,130.5892,80.754667)"
         clip-path="url(#clipPath7)" />
      <path
         id="path8"
         d="m 0,0 c 0.136,0 0.272,0 0.272,0.227 v 0.816 c 0,5.986 0,7.029 -0.09,8.253 -0.091,1.225 -0.273,1.86 -1.769,2.132 -0.317,0.045 -0.771,0.091 -1.134,0.091 -0.317,0 -0.545,0.135 -0.545,0.317 0,0.272 0.228,0.317 0.636,0.317 1.904,0 4.58,-0.136 4.761,-0.136 0.182,0 2.722,0.136 4.082,0.136 0.453,0 0.725,-0.045 0.725,-0.317 0,-0.136 -0.135,-0.317 -0.499,-0.317 -0.272,0 -0.634,-0.046 -0.907,-0.091 C 4.308,11.246 4.127,10.521 4.036,9.251 3.99,8.026 3.99,6.983 3.99,0.998 v -6.803 c 0,-3.718 0,-6.667 0.182,-8.299 0.136,-1.088 0.363,-1.996 1.542,-2.131 0.59,-0.091 1.179,-0.136 1.587,-0.136 0.363,0 0.59,-0.136 0.59,-0.317 0,-0.227 -0.227,-0.318 -0.681,-0.318 -2.267,0 -4.897,0.136 -5.124,0.136 -0.182,0 -2.812,-0.136 -4.036,-0.136 -0.453,0 -0.68,0.091 -0.68,0.362 0,0.137 0.136,0.273 0.498,0.273 0.363,0 0.681,0 1.043,0.091 0.772,0.135 0.998,1.134 1.134,2.176 0.227,1.632 0.227,4.49 0.227,8.163 v 4.036 c 0,0.181 -0.136,0.272 -0.272,0.272 h -16.462 c -0.136,0 -0.226,-0.045 -0.226,-0.272 v -4.036 c 0,-3.673 0,-6.621 0.226,-8.253 0.136,-0.998 0.363,-1.906 1.542,-2.041 0.59,-0.091 1.27,-0.136 1.633,-0.136 0.317,0 0.544,-0.136 0.544,-0.317 0,-0.182 -0.182,-0.318 -0.59,-0.318 -2.313,0 -4.988,0.136 -5.215,0.136 -0.136,0 -2.902,-0.136 -4.081,-0.136 -0.454,0 -0.725,0.091 -0.725,0.318 0,0.135 0.089,0.317 0.498,0.317 0.363,0 0.725,0.045 1.088,0.136 0.817,0.181 0.998,1.043 1.134,2.041 0.272,1.632 0.227,4.671 0.227,8.389 v 6.712 c 0,5.986 0,7.165 -0.091,8.389 -0.091,1.18 -0.408,2.041 -1.723,2.177 -0.408,0.046 -0.862,0.091 -1.224,0.091 -0.318,0 -0.499,0.136 -0.499,0.272 0,0.272 0.226,0.317 0.679,0.317 1.951,0 4.127,-0.136 4.717,-0.136 0.182,0 2.812,0.136 4.081,0.136 0.454,0 0.681,-0.09 0.681,-0.317 0,-0.182 -0.182,-0.272 -0.453,-0.272 -0.273,0 -0.408,0 -0.907,-0.091 -1.134,-0.181 -1.407,-0.952 -1.498,-2.222 -0.044,-1.225 -0.044,-2.222 -0.044,-8.208 V 0.227 C -16.688,0 -16.553,0 -16.416,0 Z"
         style="fill:#174175;fill-opacity:1;fill-rule:nonzero;stroke:none"
         transform="matrix(1.3333333,0,0,-1.3333333,223.83533,82.0848)"
         clip-path="url(#clipPath9)" />
      <path
         id="path10"
         d="m 0,0 c 0,5.94 0,7.029 -0.091,8.253 -0.091,1.27 -0.408,1.905 -1.723,2.177 -0.273,0.046 -0.726,0.091 -1.088,0.091 -0.319,0 -0.59,0.136 -0.59,0.272 0,0.272 0.226,0.363 0.679,0.363 0.908,0 2.132,-0.091 4.671,-0.136 0.228,0 8.3,0 9.206,0.045 0.908,0.045 1.407,0.091 1.769,0.227 0.272,0.09 0.317,0.136 0.499,0.136 0.091,0 0.182,-0.091 0.182,-0.318 0,-0.272 -0.273,-0.906 -0.364,-2.04 -0.045,-0.771 -0.089,-1.497 -0.135,-2.359 0,-0.408 -0.091,-0.68 -0.318,-0.68 -0.226,0 -0.317,0.182 -0.317,0.499 C 12.335,7.21 12.198,7.664 12.063,7.981 11.79,8.888 11.382,9.206 9.114,9.342 8.525,9.387 4.035,9.433 3.945,9.433 3.809,9.433 3.718,9.342 3.718,9.07 V -1.225 c 0,-0.272 0.046,-0.453 0.272,-0.453 0.544,0 5.17,0.045 6.122,0.136 1.043,0.045 1.724,0.181 2.086,0.68 0.182,0.272 0.318,0.363 0.499,0.363 0.091,0 0.182,-0.045 0.182,-0.272 0,-0.227 -0.182,-1.088 -0.317,-2.403 -0.137,-1.27 -0.137,-2.177 -0.182,-2.767 -0.045,-0.363 -0.136,-0.499 -0.317,-0.499 -0.227,0 -0.273,0.273 -0.273,0.59 0,0.272 -0.045,0.725 -0.136,1.088 -0.181,0.59 -0.453,1.224 -2.176,1.361 -1.043,0.09 -4.717,0.181 -5.443,0.181 -0.271,0 -0.317,-0.136 -0.317,-0.318 v -3.31 c 0,-1.405 -0.045,-5.397 0,-6.167 0.091,-1.678 0.317,-2.54 1.27,-2.948 0.68,-0.318 1.769,-0.409 3.311,-0.409 0.861,0 2.312,-0.045 3.446,0.273 1.36,0.408 1.678,1.315 2.041,2.993 0.09,0.453 0.227,0.635 0.407,0.635 0.273,0 0.273,-0.408 0.273,-0.68 0,-0.318 -0.362,-3.175 -0.499,-3.946 -0.181,-0.906 -0.499,-0.997 -1.995,-0.997 -2.993,0 -4.263,0.091 -5.85,0.091 -1.588,0.045 -3.674,0.135 -5.351,0.135 -1.043,0 -1.905,-0.135 -2.994,-0.135 -0.408,0 -0.634,0.09 -0.634,0.317 0,0.182 0.181,0.317 0.408,0.317 0.272,0 0.59,0.045 0.907,0.136 0.816,0.182 1.36,0.772 1.451,3.583 0.045,1.542 0.091,3.401 0.091,6.848 z"
         style="fill:#174175;fill-opacity:1;fill-rule:nonzero;stroke:none"
         transform="matrix(1.3333333,0,0,-1.3333333,249.2988,80.754667)"
         clip-path="url(#clipPath11)" />
      <path
         id="path12"
         d="m 0,0 c 0,-0.227 0.046,-0.454 0.228,-0.544 0.588,-0.318 2.403,-0.59 4.036,-0.59 0.952,0 2.086,0.046 3.038,0.68 1.36,0.862 2.267,2.857 2.267,5.76 0,4.943 -2.631,7.664 -6.667,7.664 -1.132,0 -2.086,-0.091 -2.63,-0.227 C 0.137,12.698 0,12.562 0,12.335 Z m -3.491,3.22 c 0,5.986 0,7.074 -0.091,8.299 -0.091,1.224 -0.408,1.904 -1.814,2.176 -0.272,0.046 -0.725,0.091 -1.088,0.091 -0.318,0 -0.499,0.09 -0.499,0.272 0,0.181 0.136,0.317 0.545,0.317 1.949,0 4.715,-0.136 4.806,-0.136 0.408,0 3.491,0.136 4.762,0.136 2.539,0 5.306,-0.226 7.436,-1.723 0.863,-0.635 2.722,-2.448 2.722,-5.532 0,-2.495 -1.225,-5.669 -4.808,-8.571 3.311,-4.082 6.032,-7.437 8.345,-9.841 2.177,-2.222 3.537,-2.585 4.807,-2.766 0.317,-0.046 1.269,-0.091 1.406,-0.091 0.362,0 0.499,-0.136 0.499,-0.317 0,-0.227 -0.182,-0.318 -0.816,-0.318 h -3.175 c -2.132,0 -3.129,0.136 -4.127,0.544 -1.904,0.817 -3.265,2.858 -5.623,5.896 -1.769,2.177 -3.583,4.625 -4.354,5.577 -0.181,0.182 -0.272,0.272 -0.544,0.272 l -4.67,0.046 C 0.046,-2.449 0,-2.495 0,-2.676 v -0.635 c 0,-3.628 0,-6.939 0.228,-8.57 0.135,-1.089 0.271,-1.996 1.768,-2.177 0.453,-0.046 0.952,-0.091 1.315,-0.091 0.408,0 0.589,-0.136 0.589,-0.272 0,-0.227 -0.181,-0.363 -0.634,-0.363 -2.359,0 -4.898,0.136 -5.079,0.136 -0.726,0 -2.721,-0.136 -3.946,-0.136 -0.453,0 -0.635,0.091 -0.635,0.363 0,0.136 0.273,0.272 0.544,0.272 0.318,0 0.635,0 0.998,0.091 0.771,0.136 1.043,0.635 1.179,1.723 0.227,1.632 0.182,5.351 0.182,8.752 z"
         style="fill:#174175;fill-opacity:1;fill-rule:nonzero;stroke:none"
         transform="matrix(1.3333333,0,0,-1.3333333,285.52013,85.0476)"
         clip-path="url(#clipPath13)" />
      <path
         id="path14"
         d="m 0,0 c 0,-4.081 0.045,-7.618 0.045,-8.299 0.046,-1.405 0.136,-2.63 0.454,-3.038 0.498,-0.771 1.949,-1.724 6.666,-1.724 3.719,0 7.074,1.18 9.433,3.538 1.995,1.996 2.947,5.397 2.947,9.024 0,5.125 -2.358,8.254 -3.899,9.75 C 11.79,13.106 7.347,13.56 2.856,13.56 2.222,13.56 0.816,13.423 0.544,13.242 0.181,13.061 0.045,12.879 0.045,12.471 0,11.156 0,7.301 0,4.581 Z m -3.719,3.855 c 0,5.986 0,7.12 -0.091,8.299 -0.09,1.224 -0.453,1.859 -1.768,2.131 -0.273,0.046 -0.952,0.091 -1.316,0.091 -0.226,0 -0.453,0.136 -0.453,0.272 0,0.272 0.272,0.363 0.68,0.363 1.859,0 4.717,-0.136 4.853,-0.136 0.317,0 2.675,0.136 5.215,0.136 3.991,0 11.428,0.408 16.235,-4.445 1.995,-1.995 3.854,-5.17 3.854,-9.75 0,-4.807 -2.086,-8.571 -4.307,-10.838 -1.769,-1.769 -5.216,-4.444 -12.109,-4.444 -1.723,0 -3.945,0.09 -5.669,0.227 -1.722,0.091 -3.129,0.226 -3.264,0.226 -0.091,0 -0.681,0 -1.542,-0.045 -0.862,0 -1.951,-0.09 -2.631,-0.09 -0.407,0 -0.635,0.09 -0.635,0.317 0,0.136 0.137,0.317 0.499,0.317 0.363,0 0.681,0.045 1.043,0.136 0.771,0.136 1.043,1.089 1.18,2.086 0.271,1.678 0.226,4.762 0.226,8.435 z"
         style="fill:#174175;fill-opacity:1;fill-rule:nonzero;stroke:none"
         transform="matrix(1.3333333,0,0,-1.3333333,325.01107,85.894667)"
         clip-path="url(#clipPath15)" />
      <path
         id="path16"
         d="m 0,0 c -0.59,0.271 -0.59,0.453 -0.59,1.541 0,2.086 0.137,3.628 0.182,4.264 0.045,0.407 0.136,0.634 0.363,0.634 0.227,0 0.317,-0.136 0.317,-0.454 0,-0.271 0,-0.816 0.136,-1.36 0.59,-2.947 3.265,-4.081 5.896,-4.081 3.763,0 5.578,2.585 5.578,4.852 0,2.584 -1.18,4.172 -4.49,6.848 l -1.814,1.405 c -4.353,3.493 -5.261,5.896 -5.261,8.572 0,4.172 3.311,6.983 8.39,6.983 1.587,0 2.676,-0.136 3.673,-0.362 0.862,-0.182 1.224,-0.227 1.542,-0.227 0.317,0 0.408,-0.091 0.408,-0.272 0,-0.182 -0.182,-1.769 -0.182,-4.399 0,-0.68 -0.089,-0.952 -0.317,-0.952 -0.227,0 -0.271,0.181 -0.317,0.498 -0.045,0.408 -0.136,1.361 -0.544,2.132 -0.227,0.408 -1.27,2.131 -5.079,2.131 -2.721,0 -4.762,-1.632 -4.762,-4.354 0,-2.131 1.089,-3.446 4.852,-6.303 L 9.024,16.28 c 4.716,-3.628 5.941,-6.031 5.941,-9.252 0,-1.632 -0.68,-4.534 -3.446,-6.439 C 9.75,-0.545 7.573,-0.998 5.396,-0.998 3.492,-0.998 1.724,-0.771 0,0"
         style="fill:#174175;fill-opacity:1;fill-rule:nonzero;stroke:none"
         transform="matrix(1.3333333,0,0,-1.3333333,365.59053,104.09387)"
         clip-path="url(#clipPath17)" />
      <path
         id="path18"
         d="m 0,0 c 0,7.075 0,8.344 -0.091,9.795 -0.091,1.542 -0.544,2.313 -1.542,2.54 -0.499,0.136 -1.088,0.182 -1.405,0.182 -0.182,0 -0.363,0.09 -0.363,0.272 0,0.272 0.226,0.362 0.725,0.362 1.497,0 4.354,-0.136 4.58,-0.136 0.227,0 3.084,0.136 4.445,0.136 0.499,0 0.725,-0.09 0.725,-0.362 0,-0.182 -0.181,-0.272 -0.362,-0.272 -0.317,0 -0.59,-0.046 -1.134,-0.137 C 4.354,12.154 3.99,11.383 3.899,9.795 3.81,8.344 3.81,7.075 3.81,0 v -7.981 c 0,-4.353 0,-7.936 0.226,-9.841 0.136,-1.315 0.408,-2.313 1.769,-2.494 0.634,-0.091 1.587,-0.182 1.859,-0.182 0.408,0 0.544,-0.135 0.544,-0.272 0,-0.227 -0.182,-0.362 -0.68,-0.362 -2.495,0 -5.397,0.135 -5.624,0.135 -0.226,0 -3.083,-0.135 -4.444,-0.135 -0.498,0 -0.726,0.09 -0.726,0.362 0,0.137 0.091,0.272 0.499,0.272 0.273,0 0.772,0.045 1.18,0.136 0.906,0.182 1.179,1.225 1.36,2.54 C 0,-15.917 0,-12.334 0,-7.981 Z"
         style="fill:#174175;fill-opacity:1;fill-rule:nonzero;stroke:none"
         transform="matrix(1.3333333,0,0,-1.3333333,420.6204,76.5828)"
         clip-path="url(#clipPath19)" />
      <path
         id="path20"
         d="m 0,0 c 0,1.406 0.136,1.859 0.499,1.859 0.317,0 1.088,-0.907 1.405,-1.224 0.409,-0.454 6.712,-6.893 13.061,-13.378 3.537,-3.447 8.072,-8.118 9.252,-9.206 L 23.718,-3.084 C 23.672,-0.635 23.4,0.181 22.176,0.499 21.404,0.635 20.725,0.68 20.407,0.68 c -0.454,0 -0.544,0.181 -0.544,0.363 0,0.227 0.363,0.272 0.817,0.272 1.949,0 3.854,-0.136 4.262,-0.136 0.454,0 1.86,0.136 3.628,0.136 0.498,0 0.635,-0.045 0.635,-0.272 0,-0.182 -0.137,-0.317 -0.408,-0.363 -0.273,-0.045 -0.635,-0.045 -1.134,-0.136 -1.043,-0.227 -1.36,-0.68 -1.36,-3.401 l -0.091,-22.766 c 0,-2.267 -0.091,-2.494 -0.408,-2.494 -0.318,0 -0.771,0.318 -2.993,2.404 -0.182,0.09 -6.485,6.348 -10.431,10.203 -4.716,4.898 -9.251,9.614 -10.385,10.794 l 0.59,-17.732 c 0.091,-3.129 0.362,-4.308 1.496,-4.58 0.726,-0.181 1.497,-0.181 1.859,-0.181 0.364,0 0.545,-0.136 0.545,-0.318 0,-0.226 -0.227,-0.317 -0.725,-0.317 -2.449,0 -4.082,0.136 -4.4,0.136 -0.317,0 -1.995,-0.136 -3.945,-0.136 -0.408,0 -0.681,0.045 -0.681,0.317 0,0.182 0.182,0.318 0.636,0.318 0.317,0 0.816,0 1.405,0.181 C -0.227,-26.71 0,-25.487 0,-22.176 0,-0.544 0.045,-7.528 0,0"
         style="fill:#174175;fill-opacity:1;fill-rule:nonzero;stroke:none"
         transform="matrix(1.3333333,0,0,-1.3333333,444.20507,67.6336)"
         clip-path="url(#clipPath21)" />
      <path
         id="path22"
         d="m 0,0 c 0,1.406 0.136,1.859 0.499,1.859 0.317,0 1.088,-0.907 1.405,-1.224 0.409,-0.454 6.712,-6.893 13.061,-13.378 3.537,-3.447 8.072,-8.118 9.252,-9.206 L 23.718,-3.084 C 23.672,-0.635 23.4,0.181 22.176,0.499 21.404,0.635 20.725,0.68 20.407,0.68 c -0.454,0 -0.544,0.181 -0.544,0.363 0,0.227 0.363,0.272 0.817,0.272 1.949,0 3.854,-0.136 4.262,-0.136 0.454,0 1.86,0.136 3.628,0.136 0.498,0 0.635,-0.045 0.635,-0.272 0,-0.182 -0.137,-0.317 -0.408,-0.363 -0.273,-0.045 -0.635,-0.045 -1.134,-0.136 -1.043,-0.227 -1.36,-0.68 -1.36,-3.401 l -0.091,-22.766 c 0,-2.267 -0.091,-2.494 -0.408,-2.494 -0.318,0 -0.771,0.318 -2.993,2.404 -0.182,0.09 -6.485,6.348 -10.431,10.203 -4.716,4.898 -9.251,9.614 -10.385,10.794 l 0.59,-17.732 c 0.091,-3.129 0.362,-4.308 1.496,-4.58 0.726,-0.181 1.497,-0.181 1.859,-0.181 0.364,0 0.545,-0.136 0.545,-0.318 0,-0.226 -0.227,-0.317 -0.725,-0.317 -2.449,0 -4.082,0.136 -4.4,0.136 -0.317,0 -1.995,-0.136 -3.945,-0.136 -0.408,0 -0.681,0.045 -0.681,0.317 0,0.182 0.182,0.318 0.636,0.318 0.317,0 0.816,0 1.405,0.181 C -0.227,-26.71 0,-25.487 0,-22.176 0,-0.544 0.045,-7.528 0,0"
         style="fill:#174175;fill-opacity:1;fill-rule:nonzero;stroke:none"
         transform="matrix(1.3333333,0,0,-1.3333333,495.18427,67.6336)"
         clip-path="url(#clipPath23)" />
      <path
         id="path24"
         d="M 0,0 -1.589,4.073 -3.24,0 Z M 0.509,-1.296 H -3.78 L -4.968,-4.228 H -6.45 l 4.876,11.619 h 0.093 L 3.395,-4.228 H 1.667 Z"
         style="fill:#78a0b6;fill-opacity:1;fill-rule:nonzero;stroke:none"
         transform="matrix(1.3333333,0,0,-1.3333333,193.21027,124.88733)"
         clip-path="url(#clipPath25)" />
      <path
         id="path26"
         d="m 0,0 c -0.453,0.134 -0.879,0.201 -1.281,0.201 -0.607,0 -1.088,-0.137 -1.442,-0.409 -0.355,-0.272 -0.533,-0.646 -0.533,-1.118 0,-0.463 0.209,-0.841 0.625,-1.135 0.417,-0.293 1.011,-0.584 1.782,-0.871 0.577,-0.206 1.062,-0.43 1.458,-0.672 C 1.005,-4.245 1.334,-4.58 1.597,-5.007 1.859,-5.434 1.99,-5.977 1.99,-6.635 1.99,-7.231 1.841,-7.771 1.543,-8.255 1.245,-8.738 0.82,-9.118 0.27,-9.396 c -0.55,-0.278 -1.196,-0.417 -1.937,-0.417 -0.688,0 -1.352,0.111 -1.99,0.332 -0.638,0.221 -1.198,0.502 -1.682,0.84 l 0.664,1.189 c 0.38,-0.288 0.838,-0.532 1.373,-0.733 0.535,-0.201 1.034,-0.301 1.497,-0.301 0.596,0 1.118,0.154 1.566,0.463 0.447,0.308 0.671,0.766 0.671,1.374 0,0.513 -0.188,0.922 -0.563,1.226 -0.376,0.303 -0.903,0.589 -1.582,0.857 -0.627,0.236 -1.149,0.467 -1.566,0.694 -0.416,0.226 -0.774,0.537 -1.072,0.934 -0.298,0.395 -0.448,0.891 -0.448,1.488 0,0.874 0.306,1.582 0.919,2.122 0.611,0.54 1.406,0.825 2.383,0.856 1.204,0 2.32,-0.299 3.349,-0.895 L 1.281,-0.524 C 0.879,-0.309 0.453,-0.134 0,0"
         style="fill:#78a0b6;fill-opacity:1;fill-rule:nonzero;stroke:none"
         transform="matrix(1.3333333,0,0,-1.3333333,219.8724,117.6048)"
         clip-path="url(#clipPath27)" />
      <path
         id="path28"
         d="m 0,0 c -0.453,0.134 -0.879,0.201 -1.281,0.201 -0.607,0 -1.088,-0.137 -1.442,-0.409 -0.355,-0.272 -0.533,-0.646 -0.533,-1.118 0,-0.463 0.209,-0.841 0.625,-1.135 0.417,-0.293 1.011,-0.584 1.782,-0.871 0.577,-0.206 1.062,-0.43 1.458,-0.672 C 1.005,-4.245 1.334,-4.58 1.597,-5.007 1.859,-5.434 1.99,-5.977 1.99,-6.635 1.99,-7.231 1.841,-7.771 1.543,-8.255 1.245,-8.738 0.82,-9.118 0.27,-9.396 c -0.55,-0.278 -1.196,-0.417 -1.937,-0.417 -0.688,0 -1.352,0.111 -1.99,0.332 -0.638,0.221 -1.198,0.502 -1.682,0.84 l 0.664,1.189 c 0.38,-0.288 0.838,-0.532 1.373,-0.733 0.535,-0.201 1.034,-0.301 1.497,-0.301 0.596,0 1.118,0.154 1.566,0.463 0.447,0.308 0.671,0.766 0.671,1.374 0,0.513 -0.188,0.922 -0.563,1.226 -0.376,0.303 -0.903,0.589 -1.582,0.857 -0.627,0.236 -1.149,0.467 -1.566,0.694 -0.416,0.226 -0.774,0.537 -1.072,0.934 -0.298,0.395 -0.448,0.891 -0.448,1.488 0,0.874 0.306,1.582 0.919,2.122 0.611,0.54 1.406,0.825 2.383,0.856 1.204,0 2.32,-0.299 3.349,-0.895 L 1.281,-0.524 C 0.879,-0.309 0.453,-0.134 0,0"
         style="fill:#78a0b6;fill-opacity:1;fill-rule:nonzero;stroke:none"
         transform="matrix(1.3333333,0,0,-1.3333333,245.21813,117.6048)"
         clip-path="url(#clipPath29)" />
      <path
         id="path30"
         d="m 199.93,46.107 h -1.497 v 11.155 h 1.497 z"
         style="fill:#78a0b6;fill-opacity:1;fill-rule:nonzero;stroke:none"
         transform="matrix(1.3333333,0,0,-1.3333333,0,192)"
         clip-path="url(#clipPath31)" />
      <path
         id="path32"
         d="m 0,0 c -0.453,0.134 -0.881,0.201 -1.282,0.201 -0.607,0 -1.088,-0.137 -1.443,-0.409 -0.354,-0.272 -0.531,-0.646 -0.531,-1.118 0,-0.463 0.209,-0.841 0.625,-1.135 0.416,-0.293 1.009,-0.584 1.781,-0.871 0.577,-0.206 1.063,-0.43 1.459,-0.672 C 1.004,-4.245 1.334,-4.58 1.596,-5.007 1.859,-5.434 1.99,-5.977 1.99,-6.635 1.99,-7.231 1.84,-7.771 1.543,-8.255 1.244,-8.738 0.82,-9.118 0.27,-9.396 c -0.551,-0.278 -1.196,-0.417 -1.937,-0.417 -0.689,0 -1.353,0.111 -1.991,0.332 -0.638,0.221 -1.198,0.502 -1.682,0.84 l 0.664,1.189 c 0.38,-0.288 0.838,-0.532 1.373,-0.733 0.535,-0.201 1.033,-0.301 1.496,-0.301 0.598,0 1.12,0.154 1.567,0.463 0.447,0.308 0.672,0.766 0.672,1.374 0,0.513 -0.188,0.922 -0.563,1.226 -0.377,0.303 -0.904,0.589 -1.582,0.857 -0.627,0.236 -1.151,0.467 -1.567,0.694 -0.416,0.226 -0.774,0.537 -1.072,0.934 -0.298,0.395 -0.448,0.891 -0.448,1.488 0,0.874 0.306,1.582 0.919,2.122 0.611,0.54 1.406,0.825 2.382,0.856 1.206,0 2.321,-0.299 3.351,-0.895 L 1.279,-0.524 C 0.879,-0.309 0.451,-0.134 0,0"
         style="fill:#78a0b6;fill-opacity:1;fill-rule:nonzero;stroke:none"
         transform="matrix(1.3333333,0,0,-1.3333333,290.21227,117.6048)"
         clip-path="url(#clipPath33)" />
      <path
         id="path34"
         d="m 0,0 v -1.435 h -2.993 v -9.72 H -4.49 v 9.72 H -7.406 V 0 Z"
         style="fill:#78a0b6;fill-opacity:1;fill-rule:nonzero;stroke:none"
         transform="matrix(1.3333333,0,0,-1.3333333,318.25267,115.6504)"
         clip-path="url(#clipPath35)" />
      <path
         id="path36"
         d="m 0,0 v -1.435 h -5.755 v -3.394 h 5.138 v -1.435 h -5.138 v -3.441 h 5.971 v -1.45 H -7.252 V 0 Z"
         style="fill:#78a0b6;fill-opacity:1;fill-rule:nonzero;stroke:none"
         transform="matrix(1.3333333,0,0,-1.3333333,344.48173,115.6504)"
         clip-path="url(#clipPath37)" />
      <path
         id="path38"
         d="m 0,0 c 0.823,0 1.559,0.162 2.207,0.486 0.647,0.325 1.154,0.795 1.52,1.412 0.365,0.618 0.547,1.353 0.547,2.206 0,0.875 -0.19,1.625 -0.571,2.253 C 3.323,6.984 2.816,7.461 2.184,7.784 1.551,8.108 0.869,8.271 0.14,8.271 h -1.945 l 0,-8.271 z m -3.302,9.705 h 3.056 C 1.143,9.705 2.292,9.43 3.202,8.88 4.112,8.329 4.776,7.62 5.192,6.751 5.609,5.881 5.817,4.963 5.817,3.996 5.817,2.916 5.565,1.962 5.062,1.135 4.558,0.306 3.884,-0.331 3.04,-0.779 2.196,-1.227 1.281,-1.45 0.294,-1.45 h -3.596 z"
         style="fill:#78a0b6;fill-opacity:1;fill-rule:nonzero;stroke:none"
         transform="matrix(1.3333333,0,0,-1.3333333,366.02213,128.59053)"
         clip-path="url(#clipPath39)" />
      <path
         id="path40"
         d="m 0,0 v -9.705 h 5.678 v -1.45 h -7.175 l 0,11.155 z"
         style="fill:#78a0b6;fill-opacity:1;fill-rule:nonzero;stroke:none"
         transform="matrix(1.3333333,0,0,-1.3333333,396.10027,115.6504)"
         clip-path="url(#clipPath41)" />
      <path
         id="path42"
         d="m 316.701,46.107 h -1.497 v 11.155 h 1.497 z"
         style="fill:#78a0b6;fill-opacity:1;fill-rule:nonzero;stroke:none"
         transform="matrix(1.3333333,0,0,-1.3333333,0,192)"
         clip-path="url(#clipPath43)" />
      <path
         id="path44"
         d="M 0,0 -4.922,-11.68 -9.844,0 h 1.775 L -4.86,-8.038 -1.759,0 Z"
         style="fill:#78a0b6;fill-opacity:1;fill-rule:nonzero;stroke:none"
         transform="matrix(1.3333333,0,0,-1.3333333,451.74867,115.6504)"
         clip-path="url(#clipPath45)" />
      <path
         id="path46"
         d="m 352.56,46.107 h -1.497 v 11.155 h 1.497 z"
         style="fill:#78a0b6;fill-opacity:1;fill-rule:nonzero;stroke:none"
         transform="matrix(1.3333333,0,0,-1.3333333,0,192)"
         clip-path="url(#clipPath47)" />
      <path
         id="path48"
         d="m 0,0 v -11.525 h -0.046 l -8.193,8.316 0.031,-7.946 H -9.721 V 0.34 h 0.077 L -1.466,-8.069 -1.496,0 Z"
         style="fill:#78a0b6;fill-opacity:1;fill-rule:nonzero;stroke:none"
         transform="matrix(1.3333333,0,0,-1.3333333,500.69147,115.6504)"
         clip-path="url(#clipPath49)" />
      <path
         id="path50"
         d="m 0,0 c -0.726,-0.226 -1.396,-0.339 -2.014,-0.339 -1.163,0 -2.186,0.239 -3.071,0.717 -0.885,0.478 -1.565,1.135 -2.044,1.968 -0.478,0.833 -0.718,1.768 -0.718,2.807 0,1.214 0.257,2.266 0.772,3.157 0.514,0.888 1.209,1.57 2.083,2.044 0.874,0.472 1.831,0.709 2.87,0.709 0.627,0 1.219,-0.075 1.774,-0.223 0.556,-0.15 1.055,-0.348 1.497,-0.595 L 0.655,8.872 c -0.329,0.186 -0.743,0.348 -1.242,0.486 -0.499,0.139 -0.949,0.208 -1.35,0.208 -0.864,0 -1.627,-0.174 -2.292,-0.524 -0.663,-0.35 -1.174,-0.849 -1.535,-1.497 -0.36,-0.648 -0.54,-1.403 -0.54,-2.268 0,-0.802 0.18,-1.517 0.54,-2.144 0.361,-0.628 0.869,-1.114 1.528,-1.458 0.658,-0.346 1.409,-0.518 2.253,-0.518 0.39,0 0.771,0.039 1.141,0.116 0.371,0.078 0.68,0.188 0.926,0.331 V 3.812 H -2.138 V 5.246 H 1.597 V 0.741 C 1.257,0.474 0.725,0.227 0,0"
         style="fill:#78a0b6;fill-opacity:1;fill-rule:nonzero;stroke:none"
         transform="matrix(1.3333333,0,0,-1.3333333,527.88027,130.23627)"
         clip-path="url(#clipPath51)" />
      <path
         id="path52"
         d="m 0,0 c -0.385,5.417 -3.554,8.76 -9.354,8.76 l -5.374,10e-4 c 10e-4,0.006 0.002,0.013 0.002,0.019 -0.207,-0.008 -0.395,-0.014 -0.573,-0.019 h -0.958 c -0.792,0.033 -2.758,0.125 -4.371,0.125 -0.408,0 -0.635,-0.091 -0.635,-0.363 0,-0.136 0.182,-0.227 0.272,-0.227 0.363,0 1.088,-0.045 1.406,-0.09 1.27,-0.272 1.633,-0.998 1.723,-2.177 0.091,-1.225 0.116,-8.431 0.156,-8.64 l 0.005,-36.651 c -0.031,-1.579 0.133,-1.971 -0.814,-2.918 0,0 3.798,1.339 3.769,2.918 V 7.4 h 5.229 c 3.858,0 6.17,-2.776 6.116,-6.944 C -3.493,-6.505 -9.127,-7.729 -9.127,-7.729 -2.565,-8.004 0.19,-2.677 0,0"
         style="fill:#174175;fill-opacity:1;fill-rule:nonzero;stroke:none"
         transform="matrix(1.3333333,0,0,-1.3333333,185.73213,77.5592)"
         clip-path="url(#clipPath53)" />
    </g>
  </g>
</svg>
