<svg xmlns="http://www.w3.org/2000/svg" width="512" height="512" viewBox="0 0 512 512">
  <rect width="512" height="512" rx="92" ry="92" fill="#174175"/>
  <path d="M49.71426069667918 405.57004519044546V326.9541639767592H77.91826327899035Q84.3585473332189 364.2633957391866 108.34305346620792 382.6959328599096Q132.32755959919695 401.12846998063264 174.744602852909 401.12846998063264Q209.16681072895807 401.12846998063264 227.15519032869986 388.025823111685Q245.14356992844162 374.92317624273727 245.14356992844162 349.6061975468044Q245.14356992844162 329.61910910264686 232.92923810145646 318.5151710781149Q220.7149062744713 307.411233053583 182.51735947008137 297.8618463524855L132.7717171201782 285.64751452550036Q84.13646857272823 273.2111039380245 64.37145888906136 251.11426726920593Q44.60644920539448 229.01743060038734 44.60644920539448 188.15493867010974Q44.60644920539448 138.85345384118784 77.36306637776376 111.42672692059392Q110.11968355013303 84.0 169.19263384064303 84.0Q198.28495146491676 84.0 229.7090960743422 88.88573273079407Q261.13324068376767 93.77146546158815 294.8892122783448 103.54293092317624V176.82892188508714H266.6852096960336Q260.2449256418051 142.62879276952873 238.48120711372246 126.75016139444804Q216.7174885856398 110.87153001936736 176.5212329368341 110.87153001936736Q143.65357638421952 110.87153001936736 126.88662996717628 122.30858618463526Q110.11968355013303 133.74564234990316 110.11968355013303 156.39767591994837Q110.11968355013303 177.0510006455778 121.66777909564627 187.82182052937378Q133.2158746411595 198.5926404131698 178.29786302075922 210.14073595868302L228.0435053706624 222.35506778566818Q274.2358875527154 233.90316333118142 295.0002516585902 258.33182698515174Q315.7646157644649 282.76049063912205 315.7646157644649 325.62169141381537Q315.7646157644649 375.8114912846998 281.1203291279252 401.90574564234987Q246.47604249138544 428.0 179.18617806272178 428.0Q146.76267903108848 428.0 114.78333752043645 422.448030987734Q82.80399600978441 416.89606197546806 49.71426069667918 405.57004519044546Z" fill="#C8E6F4"/>
  <path d="M337.76461576446485 428.0V407.57669122572H370.0030618461795V196.42330877427997H337.76461576446485V176.0H467.3935507946055V196.42330877427997H434.9863170370703V407.57669122572H467.3935507946055V428.0Z" fill="#C8E6F4"/>
</svg>
